<?xml version="1.0" encoding="UTF-8" standalone="no"?>
<svg
   width="161.13702"
   height="163.12468"
   version="1.1"
   id="svg7"
   sodipodi:docname="maup_logo.svg"
   inkscape:version="1.4 (86a8ad7, 2024-10-11)"
   xmlns:inkscape="http://www.inkscape.org/namespaces/inkscape"
   xmlns:sodipodi="http://sodipodi.sourceforge.net/DTD/sodipodi-0.dtd"
   xmlns="http://www.w3.org/2000/svg"
   xmlns:svg="http://www.w3.org/2000/svg">
  <sodipodi:namedview
     id="namedview7"
     pagecolor="#ffffff"
     bordercolor="#000000"
     borderopacity="0.25"
     inkscape:showpageshadow="2"
     inkscape:pageopacity="0.0"
     inkscape:pagecheckerboard="0"
     inkscape:deskcolor="#d1d1d1"
     showgrid="false"
     inkscape:zoom="2.9572002"
     inkscape:cx="173.98213"
     inkscape:cy="62.728252"
     inkscape:window-width="1920"
     inkscape:window-height="991"
     inkscape:window-x="-9"
     inkscape:window-y="1341"
     inkscape:window-maximized="1"
     inkscape:current-layer="Layer_2"
     showguides="true">
    <sodipodi:guide
       position="-73.041197,164.52716"
       orientation="0,-1"
       id="guide9"
       inkscape:locked="false" />
    <sodipodi:guide
       position="-0.67545003,177.37715"
       orientation="1,0"
       id="guide10"
       inkscape:locked="false" />
    <sodipodi:guide
       position="435.54798,121.91929"
       orientation="1,0"
       id="guide12"
       inkscape:locked="false" />
    <sodipodi:guide
       position="166.37445,203.07714"
       orientation="1,0"
       id="guide13"
       inkscape:locked="false" />
  </sodipodi:namedview>
  <defs
     id="defs1">
    <linearGradient
       id="swatch13"
       inkscape:swatch="solid">
      <stop
         style="stop-color:#ffffff;stop-opacity:1;"
         offset="0"
         id="stop13" />
    </linearGradient>
    <rect
       x="170.09332"
       y="74.056534"
       width="273.56958"
       height="82.848633"
       id="rect12" />
    <rect
       x="220.81697"
       y="86.568367"
       width="89.273628"
       height="28.067089"
       id="rect11" />
    <rect
       x="171.44595"
       y="2.3671038"
       width="162.992"
       height="68.646011"
       id="rect10" />
  </defs>
  <g
     id="Layer_2"
     data-name="Layer 2"
     transform="matrix(0.99998151,0,0,1.0123165,-0.6713152,-0.67125422)">
    <g
       id="Layer_1-2"
       data-name="Layer 1"
       transform="translate(0.67632764,0.66808733)">
      <path
         fill="none"
         stroke="#1064af"
         stroke-width="2.69"
         d="M 1.34,1.34 H 159.79 V 159.79 H 1.34 Z"
         id="path2"
         style="display:inline" />
      <path
         class="cls-1"
         d="m 64.86,54.08 a 32.94,32.94 0 0 1 2.85,-1.69 c 0,8.31 0.17,17.72 0,25.91 a 14,14 0 0 0 -5.5,-5.95 11.52,11.52 0 0 1 -5.59,-6 C 52.52,57.5 54.5,44.35 48.49,36.63 L 48.07,36 a 29.32,29.32 0 0 1 3.79,-2.49 l -0.15,-1.42 c -1.06,0.12 -3.72,2.44 -5,2.74 -0.54,-1 -1.84,-1.55 -2.57,-2.4 1.16,-1.06 6.9,-4.09 8.07,-5.09 l 0.07,-0.06 0.21,-0.22 c -2.64,0.22 -6.72,1 -9.51,1.48 l -23.51,3.71 c -0.59,0.09 -4.23,0.51 -4.75,0.86 a 28.66,28.66 0 0 0 1.91,3 l 4,6 c 0.65,1 1.33,2 1.93,3 1.16,-0.39 5,-2.77 6.37,-3.52 1.37,-0.75 1.21,-1.21 3.84,1.29 A 23.15,23.15 0 0 1 36,46.27 c 6.47,9.25 4,18.51 8.34,28.2 1.39,3.09 5.07,6.78 7.8,8.81 0.63,0.47 1.42,0.89 2,1.35 0.58,0.46 1.23,1 1.83,1.5 a 23.58,23.58 0 0 1 7,9.6 c 1.88,4.77 1.47,5.79 1.47,10.47 v 34.27 c 1.07,-0.53 2,-1.9 3.1,-2.44 v 2.44 h 1.78 l 0.13,-89.09 a 33.29,33.29 0 0 1 4,-2.14 v 91.2 a 14.34,14.34 0 0 0 1.81,-2.06 c 3.45,-4.18 6.85,-8.54 10.36,-12.66 a 10.46,10.46 0 0 1 1.85,-2.12 27.39,27.39 0 0 1 3.1,3.38 l 3.12,3.52 c 0.74,0.82 1.35,1.56 2.07,2.33 0.72,0.77 1.36,1.49 2.11,2.28 a 56.42,56.42 0 0 0 4.54,4.24 c 0.57,0.49 2.14,2.08 2.65,0.5 -1.93,-1 -4.4,-3.59 -6,-5.23 -0.89,-0.93 -1.94,-1.93 -2.78,-2.91 -1.05,-1.22 -3,-3.34 -3.91,-4.52 -0.42,-0.55 -0.89,-1 -1.3,-1.55 -0.41,-0.55 -0.85,-1 -1.31,-1.54 a 63.81,63.81 0 0 1 -4.92,-6.47 l -1.1,-1.75 c -3.25,-5.18 -8.43,-13.92 -5.8,-21.07 1.49,-4 5.79,-5.75 9.11,-8 a 60.47,60.47 0 0 0 5,-3.38 18.74,18.74 0 0 0 6.19,-8 c 3.84,-9.24 5.16,-25.44 12.87,-32.46 3.06,-2.79 8.57,-4.4 12.82,-2.23 a 6.27,6.27 0 0 1 3,2.74 c -0.81,0.41 -2.53,1.92 -3.22,2 -1.65,0.17 -4.19,-3.1 -8.24,-0.53 -5.22,3.31 -7.05,11.24 -9.23,17.35 -0.44,1.24 -0.75,2.76 -1.11,4.11 A 58.84,58.84 0 0 1 100.9,78 50.78,50.78 0 0 1 96.82,84.48 c -2.29,3.2 -9,6.23 -12.5,8.74 A 14,14 0 0 0 81.93,96 8.48,8.48 0 0 0 81,100.33 c 0.26,2.07 2,5.94 2.88,7.67 a 67.36,67.36 0 0 0 3.95,6.73 58.92,58.92 0 0 0 4.36,6.27 c 0.78,0.87 1.55,2.16 2.31,3 0.89,1 1.47,2 2.38,3 1.69,1.89 3.23,3.74 5.09,5.47 l 4.21,3.73 a 12.16,12.16 0 0 0 1.58,1.22 24.5,24.5 0 0 0 2.73,-3 l 5.35,-6 c 0.55,-0.6 0.84,-1 1.32,-1.54 a 13.5,13.5 0 0 0 1.36,-1.54 L 114.66,122 a 57.82,57.82 0 0 1 -5.38,-5.42 c -0.48,-0.55 -1,-1.43 -1.54,-2 a 41.55,41.55 0 0 1 -3.33,-3.9 c -3.48,-4.66 -8.4,-11.7 -10,-18.8 -0.19,-0.85 -0.64,-2.49 -0.15,-3.18 l 9,-9.06 c 2.46,-2.44 6.3,-7 7.57,-10.36 1,-2.56 4.21,-11.38 4.76,-13.38 l 26.19,1.34 0.28,-1 -26,-1.37 c 0.06,-1.41 1,-2.51 1.29,-3.63 l 25.65,1.28 0.31,-0.71 c 1.1,-3.81 6.68,-21.83 7,-23.36 -1,0.22 -5.64,3.62 -7,4.44 -1.36,0.82 -1.47,0.17 -2.56,-0.43 -5.91,-3.23 -12.32,-1.88 -18.09,1.36 C 116.16,37.44 109.1,41.21 106,48 a 90.15,90.15 0 0 0 -5.8,17.3 C 98.82,70.85 97,77.41 93,81.29 a 18.8,18.8 0 0 1 -4.51,3.21 c -0.14,-6.41 0,-14.6 0,-21.25 0,-2.55 -0.11,-22.8 0,-23.5 0.06,-0.32 5.24,-3.29 5.91,-3.68 L 96,35.23 c 0.35,-0.22 0.28,-0.12 0.42,-0.45 C 96.09,34.17 85.11,26.4 83.6,25.13 a 10.72,10.72 0 0 0 -1.92,-1.37 36.46,36.46 0 0 1 -2.06,3.74 c -0.75,1.31 -1.39,2.49 -2.13,3.81 l -6.32,11.36 c -0.7,1.28 -1.43,2.54 -2.11,3.83 -1.31,2.51 -3,5 -4.2,7.58"
         id="path3"
         style="display:inline;fill:#1064af;fill-opacity:1" />
      <path
         d="m 13.09,39.09 c 0.67,0.61 3.52,4.74 4.24,5.8 l 4.18,5.9 c 0.62,-0.19 7.58,-4.11 8.47,-4.57 a 9.29,9.29 0 0 1 2.52,2.72 c 5.77,9.32 3.68,23.44 11.1,32.33 A 11.74,11.74 0 0 0 46.28,84 c 4.35,3.66 7.87,5.89 11.2,10.63 1.09,1.54 2.9,5.49 2.9,8 v 34.41 a 31.34,31.34 0 0 1 -0.1,3.93 h 1.22 c -0.31,-2.25 -0.11,-19 -0.11,-22.91 v -15.53 c 0,-3.11 -2.28,-7.55 -4,-9.75 A 38.25,38.25 0 0 0 51.8,87.22 l -6.07,-5 A 29,29 0 0 1 42.22,77.3 C 37.42,68.75 38.77,56.72 33,47.77 a 31.14,31.14 0 0 0 -2.74,-2.83 c -0.19,0.17 -8,4.42 -8.35,4.51 -0.67,-0.84 -1.35,-1.82 -2,-2.72 l -3,-4.22 C 16.31,41.63 14.27,38.89 14,38.2 a 1.44,1.44 0 0 0 -0.86,0.88 M 58.76,54 H 60 L 76.9,24.64 c 0.24,-0.43 0.43,-0.6 0.61,-0.9 h -1.28 c -1.2,2.36 -3,5.11 -4.32,7.55 L 63.17,46.42 C 62.46,47.7 61.69,48.94 61,50.18 Z"
         fill="#ffffff"
         id="path4"
         style="fill:#1064af;fill-opacity:1" />
    </g>
  </g>
</svg>
